<svg width="866" height="835" viewBox="0 0 866 835" fill="none" xmlns="http://www.w3.org/2000/svg">
<path d="M539.919 378.931C490.721 353.496 432.717 354.836 384.758 382.526C336.799 410.215 306.636 459.778 304.069 515.099L297.874 648.409C296.845 670.525 302.839 691.934 315.196 710.306C327.555 728.683 345.123 742.297 366.005 749.692C386.888 757.068 409.114 757.518 430.282 750.997C451.45 744.475 469.565 731.581 482.672 713.722L483.546 712.52C516.748 667.967 567.35 638.987 622.621 632.922C636.878 631.356 650.384 626.928 662.54 619.91C669.15 616.094 675.365 611.505 681.086 606.201C697.321 591.134 708.044 571.66 712.099 549.88C716.148 528.109 713.144 506.081 703.41 486.182C693.677 466.283 678.136 450.393 658.464 440.217L539.919 378.931Z" fill="#FFBD54"/>
<path d="M258.424 541.283C272.865 523.443 278.328 500.352 273.806 476.263C269.506 453.338 256.537 432.142 237.281 416.576C218.028 401.027 194.585 392.794 171.265 393.39C146.772 394.02 125.338 404.195 110.936 422.03C81.9401 457.876 91.4271 513.804 132.101 546.724C164.522 572.899 207.07 576.672 237.681 558.999C245.497 554.486 252.535 548.574 258.424 541.283Z" fill="#FFBD54"/>
<path d="M335.433 395.181C382.023 368.282 394.995 303.214 364.349 250.133C333.696 197.039 270.854 175.731 224.264 202.629C177.679 229.525 164.716 294.6 195.369 347.694C226.015 400.774 288.848 422.077 335.433 395.181Z" fill="#FFBD54"/>
<path d="M495.01 334.583L495.014 334.58C503.554 332.821 511.522 329.737 518.803 325.533C552.779 305.917 571.614 262.069 562.306 216.769C556.952 190.691 543.118 167.834 523.355 152.415C502.67 136.27 478.048 130.099 454.017 135.038C429.983 139.979 409.789 155.365 397.148 178.358C385.071 200.322 381.376 226.78 386.739 252.853C398.046 307.859 446.617 344.523 495.01 334.583V334.583Z" fill="#FFBD54"/>
<path d="M666.46 220.616L666.44 220.61C620.608 215.426 578.496 253.456 572.564 305.401C566.669 357.349 599.137 403.865 644.93 409.095C661.635 411.007 677.851 407.169 692 399C716.659 384.762 735.049 357.363 738.836 324.316C744.727 272.371 712.263 225.851 666.46 220.616V220.616Z" fill="#FFBD54"/>
</svg>
